<svg id="_x31__x2C_5_px" enable-background="new 0 0 24 24" height="512" viewBox="0 0 24 24" width="512" xmlns="http://www.w3.org/2000/svg"><g><path d="m10 20.438c-4.549 0-8.25-3.701-8.25-8.25v-3.438c0-.38.308-.688.688-.688h15.125c.38 0 .688.308.688.688v3.438c0 1.496-.404 2.965-1.17 4.248-.019.032-.041.063-.064.091-1.493 2.415-4.171 3.911-7.017 3.911z" fill="#ffc107"/></g><g><path d="m17.167 23.45h-14.334c-1.105 0-2-.895-2-2v-.5c0-.359.291-.65.65-.65h17.033c.359 0 .65.291.65.65v.5c.001 1.105-.895 2-1.999 2z" fill="#ffe082"/></g><g><path d="m20.25 17h-3.041c-.414 0-.75-.336-.75-.75s.336-.75.75-.75h3.041c1.241 0 2.25-1.009 2.25-2.25s-1.009-2.25-2.25-2.25h-1.75c-.414 0-.75-.336-.75-.75s.336-.75.75-.75h1.75c2.068 0 3.75 1.682 3.75 3.75s-1.682 3.75-3.75 3.75z"/></g><g><path d="m7.757 6c-.21 0-.418-.087-.567-.258-.271-.313-.238-.787.075-1.058.168-.146.25-.329.232-.517-.018-.203-.155-.392-.372-.518-.644-.372-1.05-.982-1.116-1.674-.064-.673.206-1.326.742-1.791.312-.272.787-.239 1.059.074.271.313.238.787-.075 1.058-.168.146-.25.329-.232.517.019.203.155.392.373.518.643.372 1.049.982 1.115 1.674.064.673-.206 1.326-.742 1.792-.143.122-.317.183-.492.183z"/></g><g><path d="m12.757 6c-.21 0-.418-.087-.567-.258-.271-.313-.238-.787.075-1.058.168-.146.25-.329.232-.517-.019-.203-.155-.392-.373-.518-.643-.372-1.049-.982-1.115-1.674-.064-.673.206-1.326.742-1.792.313-.271.786-.239 1.058.075.271.313.238.787-.075 1.058-.168.146-.25.329-.232.517.019.203.155.392.373.518.643.372 1.049.982 1.115 1.674.064.673-.206 1.326-.742 1.792-.142.122-.316.183-.491.183z"/></g><g><path d="m10 21c-4.962 0-9-4.038-9-9v-3.75c0-.414.336-.75.75-.75h16.5c.414 0 .75.336.75.75v3.75c0 4.962-4.038 9-9 9zm-7.5-12v3c0 4.136 3.364 7.5 7.5 7.5s7.5-3.364 7.5-7.5v-3z"/></g><g><path d="m17.25 24h-14.5c-1.517 0-2.75-1.233-2.75-2.75v-1c0-.414.336-.75.75-.75h18.5c.414 0 .75.336.75.75v1c0 1.517-1.233 2.75-2.75 2.75zm-15.75-3v.25c0 .689.561 1.25 1.25 1.25h14.5c.689 0 1.25-.561 1.25-1.25v-.25z"/></g></svg>